<?xml version="1.0" encoding="UTF-8" standalone="no"?>
<svg
   xmlns:dc="http://purl.org/dc/elements/1.1/"
   xmlns:cc="http://creativecommons.org/ns#"
   xmlns:rdf="http://www.w3.org/1999/02/22-rdf-syntax-ns#"
   xmlns:svg="http://www.w3.org/2000/svg"
   xmlns="http://www.w3.org/2000/svg"
   xmlns:sodipodi="http://sodipodi.sourceforge.net/DTD/sodipodi-0.dtd"
   xmlns:inkscape="http://www.inkscape.org/namespaces/inkscape"
   inkscape:export-ydpi="96"
   inkscape:export-xdpi="96"
   inkscape:export-filename="/home/shados/technotheca/artifacts/media/software/lua/factorio/hourly_autosaves/thumbnail.png"
   sodipodi:docname="hourly_autosave.svg"
   inkscape:version="1.0 (4035a4fb49, 2020-05-01)"
   id="svg839"
   version="1.1"
   viewBox="0 0 38.099999 38.100001"
   height="144"
   width="144">
  <defs
     id="defs833">
    <inkscape:path-effect
       effect="powermask"
       id="path-effect1055"
       is_visible="true"
       lpeversion="1"
       uri="#mask-powermask-path-effect1055"
       invert="false"
       hide_mask="false"
       background="true"
       background_color="#ffffffff" />
    <inkscape:path-effect
       message="Use fill-rule evenodd on &lt;b&gt;fill and stroke&lt;/b&gt; dialog if no flatten result after convert clip to paths."
       hide_clip="false"
       flatten="false"
       inverse="true"
       lpeversion="1"
       is_visible="true"
       id="path-effect2219"
       effect="powerclip" />
    <inkscape:path-effect
       message="Use fill-rule evenodd on &lt;b&gt;fill and stroke&lt;/b&gt; dialog if no flatten result after convert clip to paths."
       hide_clip="false"
       flatten="false"
       inverse="true"
       lpeversion="1"
       is_visible="true"
       id="path-effect2171"
       effect="powerclip" />
    <marker
       inkscape:isstock="true"
       style="overflow:visible"
       id="marker1974"
       refX="0.0"
       refY="0.0"
       orient="auto"
       inkscape:stockid="Arrow2Sstart">
      <path
         transform="scale(0.3) translate(-2.3,0)"
         d="M 8.7185878,4.0337352 L -2.2072895,0.016013256 L 8.7185884,-4.0017078 C 6.9730900,-1.6296469 6.9831476,1.6157441 8.7185878,4.0337352 z "
         style="fill-rule:evenodd;stroke-width:0.625;stroke-linejoin:round;stroke:#fffffc;stroke-opacity:1;fill:#fffffc;fill-opacity:1"
         id="path1972" />
    </marker>
    <marker
       inkscape:isstock="true"
       style="overflow:visible"
       id="marker1934"
       refX="0.0"
       refY="0.0"
       orient="auto"
       inkscape:stockid="Arrow2Sstart">
      <path
         transform="scale(0.3) translate(-2.3,0)"
         d="M 8.7185878,4.0337352 L -2.2072895,0.016013256 L 8.7185884,-4.0017078 C 6.9730900,-1.6296469 6.9831476,1.6157441 8.7185878,4.0337352 z "
         style="fill-rule:evenodd;stroke-width:0.625;stroke-linejoin:round;stroke:#fffffc;stroke-opacity:1;fill:#fffffc;fill-opacity:1"
         id="path1932" />
    </marker>
    <marker
       inkscape:isstock="true"
       style="overflow:visible"
       id="Arrow2Sstart"
       refX="0.0"
       refY="0.0"
       orient="auto"
       inkscape:stockid="Arrow2Sstart">
      <path
         transform="scale(0.3) translate(-2.3,0)"
         d="M 8.7185878,4.0337352 L -2.2072895,0.016013256 L 8.7185884,-4.0017078 C 6.9730900,-1.6296469 6.9831476,1.6157441 8.7185878,4.0337352 z "
         style="fill-rule:evenodd;stroke-width:0.625;stroke-linejoin:round;stroke:#000000;stroke-opacity:1;fill:#000000;fill-opacity:1"
         id="path1608" />
    </marker>
    <marker
       inkscape:isstock="true"
       style="overflow:visible;"
       id="Arrow1Lend"
       refX="0.0"
       refY="0.0"
       orient="auto"
       inkscape:stockid="Arrow1Lend">
      <path
         transform="scale(0.8) rotate(180) translate(12.5,0)"
         style="fill-rule:evenodd;stroke:#000000;stroke-width:1pt;stroke-opacity:1;fill:#000000;fill-opacity:1"
         d="M 0.0,0.0 L 5.0,-5.0 L -12.5,0.0 L 5.0,5.0 L 0.0,0.0 z "
         id="path1581" />
    </marker>
    <marker
       inkscape:isstock="true"
       style="overflow:visible"
       id="Arrow2Lstart"
       refX="0.0"
       refY="0.0"
       orient="auto"
       inkscape:stockid="Arrow2Lstart">
      <path
         transform="scale(1.1) translate(1,0)"
         d="M 8.7185878,4.0337352 L -2.2072895,0.016013256 L 8.7185884,-4.0017078 C 6.9730900,-1.6296469 6.9831476,1.6157441 8.7185878,4.0337352 z "
         style="fill-rule:evenodd;stroke-width:0.625;stroke-linejoin:round;stroke:#000000;stroke-opacity:1;fill:#000000;fill-opacity:1"
         id="path1596" />
    </marker>
    <marker
       inkscape:isstock="true"
       style="overflow:visible"
       id="Arrow1Lstart"
       refX="0.0"
       refY="0.0"
       orient="auto"
       inkscape:stockid="Arrow1Lstart">
      <path
         transform="scale(0.8) translate(12.5,0)"
         style="fill-rule:evenodd;stroke:#000000;stroke-width:1pt;stroke-opacity:1;fill:#000000;fill-opacity:1"
         d="M 0.0,0.0 L 5.0,-5.0 L -12.5,0.0 L 5.0,5.0 L 0.0,0.0 z "
         id="path1578" />
    </marker>
    <inkscape:path-effect
       message="Use fill-rule evenodd on &lt;b&gt;fill and stroke&lt;/b&gt; dialog if no flatten result after convert clip to paths."
       hide_clip="false"
       flatten="false"
       inverse="true"
       lpeversion="1"
       is_visible="true"
       id="path-effect1551"
       effect="powerclip" />
    <clipPath
       id="clipPath1543"
       clipPathUnits="userSpaceOnUse">
      <g
         style="display:none"
         id="g1549">
        <circle
           d="M 6.6145836,31.749998 A 1.3229166,1.3229166 0 0 1 5.291667,33.072915 1.3229166,1.3229166 0 0 1 3.9687504,31.749998 1.3229166,1.3229166 0 0 1 5.291667,30.427081 1.3229166,1.3229166 0 0 1 6.6145836,31.749998"
           style="color:#000000;display:inline;overflow:visible;visibility:visible;fill:#ffffff;fill-opacity:1;fill-rule:evenodd;stroke:none;stroke-width:3.70416;stroke-linecap:butt;stroke-linejoin:miter;stroke-miterlimit:4;stroke-dasharray:none;stroke-dashoffset:0;stroke-opacity:1;marker:none;enable-background:accumulate"
           id="circle1545"
           r="1.3229166"
           cy="31.749998"
           cx="5.291667" />
        <circle
           d="M 10.847915,31.749998 A 1.3229166,1.3229166 0 0 1 9.5249987,33.072915 1.3229166,1.3229166 0 0 1 8.202082,31.749998 1.3229166,1.3229166 0 0 1 9.5249987,30.427081 1.3229166,1.3229166 0 0 1 10.847915,31.749998"
           cy="31.749998"
           cx="9.5249987"
           id="circle1547"
           style="color:#000000;display:inline;overflow:visible;visibility:visible;fill:#ffffff;fill-opacity:1;fill-rule:evenodd;stroke:none;stroke-width:3.70416;stroke-linecap:butt;stroke-linejoin:miter;stroke-miterlimit:4;stroke-dasharray:none;stroke-dashoffset:0;stroke-opacity:1;marker:none;enable-background:accumulate"
           r="1.3229166" />
      </g>
      <path
         d="M -2.486459,24.104164 H 40.586459 V 39.395831 H -2.486459 Z m 9.1010426,7.645834 A 1.3229166,1.3229166 0 0 0 5.291667,30.427081 1.3229166,1.3229166 0 0 0 3.9687504,31.749998 1.3229166,1.3229166 0 0 0 5.291667,33.072915 1.3229166,1.3229166 0 0 0 6.6145836,31.749998 m 4.2333314,0 A 1.3229166,1.3229166 0 0 0 9.5249987,30.427081 1.3229166,1.3229166 0 0 0 8.202082,31.749998 1.3229166,1.3229166 0 0 0 9.5249987,33.072915 1.3229166,1.3229166 0 0 0 10.847915,31.749998"
         class="powerclip"
         id="lpe_path-effect1551" />
    </clipPath>
    <clipPath
       id="clipPath2167"
       clipPathUnits="userSpaceOnUse">
      <circle
         r="7.9375"
         cy="15.544271"
         cx="19.049999"
         id="circle2169"
         style="color:#000000;display:none;overflow:visible;visibility:visible;fill:#000002;fill-opacity:1;fill-rule:evenodd;stroke:none;stroke-width:3.83381;stroke-linecap:butt;stroke-linejoin:miter;stroke-miterlimit:4;stroke-dasharray:none;stroke-dashoffset:0;stroke-opacity:1;marker:none;enable-background:accumulate"
         d="m 26.987499,15.544271 a 7.9375,7.9375 0 0 1 -7.9375,7.9375 7.9375,7.9375 0 0 1 -7.9375,-7.9375 7.9375,7.9375 0 0 1 7.9375,-7.9374995 7.9375,7.9375 0 0 1 7.9375,7.9374995" />
      <path
         id="lpe_path-effect2171"
         style="color:#000000;display:block;overflow:visible;visibility:visible;fill:#000002;fill-opacity:1;fill-rule:evenodd;stroke:none;stroke-width:3.83381;stroke-linecap:butt;stroke-linejoin:miter;stroke-miterlimit:4;stroke-dasharray:none;stroke-dashoffset:0;stroke-opacity:1;marker:none;enable-background:accumulate"
         class="powerclip"
         d="M 4.7895823,1.2838545 H 33.310416 V 29.804688 H 4.7895823 Z M 26.987499,15.544271 a 7.9375,7.9375 0 0 0 -7.9375,-7.9374995 7.9375,7.9375 0 0 0 -7.9375,7.9374995 7.9375,7.9375 0 0 0 7.9375,7.9375 7.9375,7.9375 0 0 0 7.9375,-7.9375" />
    </clipPath>
    <clipPath
       id="clipPath2215"
       clipPathUnits="userSpaceOnUse">
      <path
         d="M 28.310416,15.544271 A 9.260417,9.260417 0 0 1 19.049999,24.804688 9.260417,9.260417 0 0 1 9.7895823,15.544271 9.260417,9.260417 0 0 1 19.049999,6.2838545 9.260417,9.260417 0 0 1 28.310416,15.544271 Z"
         inkscape:path-effect="#path-effect2171"
         sodipodi:cx="19.049999"
         sodipodi:cy="15.544271"
         sodipodi:rx="9.260417"
         sodipodi:ry="9.260417"
         sodipodi:type="arc"
         clip-path="url(#clipPath2167)"
         id="path2217"
         style="color:#000000;display:none;overflow:visible;visibility:visible;fill:#fffffb;fill-opacity:1;fill-rule:evenodd;stroke:none;stroke-width:1.41763;stroke-linecap:butt;stroke-linejoin:miter;stroke-miterlimit:3;stroke-dasharray:none;stroke-dashoffset:0;stroke-opacity:1;marker:none;enable-background:accumulate" />
      <path
         d="M -2.4864589,-1.03125 H 40.586459 V 32.119792 H -2.4864589 Z M 28.310416,15.544271 a 9.260417,9.260417 0 0 0 -9.260417,-9.2604165 9.260417,9.260417 0 0 0 -9.2604167,9.2604165 9.260417,9.260417 0 0 0 9.2604167,9.260417 9.260417,9.260417 0 0 0 9.260417,-9.260417 z"
         class="powerclip"
         style="color:#000000;display:inline;overflow:visible;visibility:visible;fill:#fffffb;fill-opacity:1;fill-rule:evenodd;stroke:none;stroke-width:1.41763;stroke-linecap:butt;stroke-linejoin:miter;stroke-miterlimit:3;stroke-dasharray:none;stroke-dashoffset:0;stroke-opacity:1;marker:none;enable-background:accumulate"
         id="lpe_path-effect2219" />
    </clipPath>
    <mask
       maskUnits="userSpaceOnUse"
       id="mask-powermask-path-effect1055">
      <path
         d="m 10.112499,6.6067715 h 17.875 V 24.481771 h -17.875 z"
         style="fill:#ffffff;fill-opacity:1"
         id="mask-powermask-path-effect1055_box" />
      <g
         id="g1053"
         style="">
        <path
           style="display:inline;fill:none;fill-rule:evenodd;stroke:#000000;stroke-width:1.05833;stroke-linecap:round;stroke-linejoin:miter;stroke-miterlimit:3;stroke-dasharray:none;stroke-opacity:1"
           d="M 19.05,15.54427 V 9.2604167"
           id="path1049"
           sodipodi:nodetypes="cc" />
        <path
           style="display:inline;fill:none;fill-rule:evenodd;stroke:#000000;stroke-width:1.05833;stroke-linecap:round;stroke-linejoin:miter;stroke-miterlimit:3;stroke-dasharray:none;stroke-opacity:1;paint-order:normal"
           d="M 21.43125,11.641667 19.05,15.54427"
           id="path1051"
           sodipodi:nodetypes="cc" />
      </g>
    </mask>
    <filter
       id="mask-powermask-path-effect1055_inverse"
       inkscape:label="filtermask-powermask-path-effect1055"
       style="color-interpolation-filters:sRGB"
       height="100"
       width="100"
       x="-50"
       y="-50">
      <feColorMatrix
         id="mask-powermask-path-effect1055_primitive1"
         values="1"
         type="saturate"
         result="fbSourceGraphic" />
      <feColorMatrix
         id="mask-powermask-path-effect1055_primitive2"
         values="-1 0 0 0 1 0 -1 0 0 1 0 0 -1 0 1 0 0 0 1 0 "
         in="fbSourceGraphic" />
    </filter>
  </defs>
  <sodipodi:namedview
     showguides="false"
     inkscape:window-maximized="1"
     inkscape:window-y="0"
     inkscape:window-x="0"
     inkscape:window-height="1411"
     inkscape:window-width="2560"
     units="px"
     showgrid="true"
     inkscape:document-rotation="0"
     inkscape:current-layer="layer1"
     inkscape:document-units="mm"
     inkscape:cy="60.574203"
     inkscape:cx="60.420828"
     inkscape:zoom="5.6"
     inkscape:pageshadow="2"
     inkscape:pageopacity="0.0"
     borderopacity="1.0"
     bordercolor="#666666"
     pagecolor="#ffffff"
     id="base">
    <inkscape:grid
       id="grid1420"
       type="xygrid" />
  </sodipodi:namedview>
  <metadata
     id="metadata836">
    <rdf:RDF>
      <cc:Work
         rdf:about="">
        <dc:format>image/svg+xml</dc:format>
        <dc:type
           rdf:resource="http://purl.org/dc/dcmitype/StillImage" />
        <dc:title></dc:title>
      </cc:Work>
    </rdf:RDF>
  </metadata>
  <g
     style="display:inline"
     id="layer1"
     inkscape:groupmode="layer"
     inkscape:label="HDD Base">
    <path
       inkscape:path-effect="#path-effect1551"
       d="m 2.513541,29.104164 h 33.072918 v 5.291667 H 2.513541 Z"
       clip-path="url(#clipPath1543)"
       sodipodi:type="rect"
       y="29.104164"
       x="2.513541"
       height="5.2916665"
       width="33.072918"
       id="rect1422"
       style="fill:#1d1c1f;fill-opacity:1;stroke-width:0.499999;stroke-linecap:square;stroke-dasharray:0.0499999, 0.04999990000000000;paint-order:markers stroke fill" />
    <path
       inkscape:original-d="M 6.4822911,3.96875 H 31.617708 l 3.968751,23.151042 H 2.5135411 Z"
       inkscape:path-effect="#path-effect2219"
       clip-path="url(#clipPath2215)"
       sodipodi:nodetypes="ccccc"
       d="M 6.4822911,3.96875 H 31.617708 l 3.968751,23.151042 H 2.5135411 Z"
       style="fill:#1d1c1f;fill-opacity:1;stroke-width:0.493006;stroke-linecap:square;stroke-dasharray:0.0493006, 0.04930060000000000;paint-order:markers stroke fill"
       id="rect1424" />
    <circle
       id="path2223"
       style="color:#000000;display:inline;overflow:visible;visibility:visible;fill:#1d1c1f;fill-opacity:1;fill-rule:evenodd;stroke:none;stroke-width:2.8244;stroke-linecap:butt;stroke-linejoin:miter;stroke-miterlimit:4;stroke-dasharray:none;stroke-dashoffset:0;stroke-opacity:1;marker:none;enable-background:accumulate"
       mask="url(#mask-powermask-path-effect1055)"
       inkscape:path-effect="#path-effect1055"
       sodipodi:type="arc"
       sodipodi:cx="19.049999"
       sodipodi:cy="15.544271"
       sodipodi:rx="7.9375"
       sodipodi:ry="7.9375"
       d="m 26.987499,15.544271 a 7.9375,7.9375 0 0 1 -7.9375,7.9375 7.9375,7.9375 0 0 1 -7.9375,-7.9375 7.9375,7.9375 0 0 1 7.9375,-7.9374995 7.9375,7.9375 0 0 1 7.9375,7.9374995 z" />
  </g>
</svg>
